<?xml version="1.0" standalone="yes"?><svg xmlns="http://www.w3.org/2000/svg" version="1.1" width="328" height="328" viewBox="0 0 328 328" shape-rendering="crispEdges"><rect x="0" y="0" width="328" height="328" fill="#fff"/><path fill="#000" d="M32 32h8v8H32V32M40 32h8v8H40V32M48 32h8v8H48V32M56 32h8v8H56V32M64 32h8v8H64V32M72 32h8v8H72V32M80 32h8v8H80V32M96 32h8v8H96V32M104 32h8v8H104V32M120 32h8v8H120V32M136 32h8v8H136V32M184 32h8v8H184V32M192 32h8v8H192V32M200 32h8v8H200V32M216 32h8v8H216V32M240 32h8v8H240V32M248 32h8v8H248V32M256 32h8v8H256V32M264 32h8v8H264V32M272 32h8v8H272V32M280 32h8v8H280V32M288 32h8v8H288V32M32 40h8v8H32V40M80 40h8v8H80V40M96 40h8v8H96V40M104 40h8v8H104V40M136 40h8v8H136V40M168 40h8v8H168V40M176 40h8v8H176V40M208 40h8v8H208V40M216 40h8v8H216V40M224 40h8v8H224V40M240 40h8v8H240V40M288 40h8v8H288V40M32 48h8v8H32V48M48 48h8v8H48V48M56 48h8v8H56V48M64 48h8v8H64V48M80 48h8v8H80V48M112 48h8v8H112V48M152 48h8v8H152V48M192 48h8v8H192V48M224 48h8v8H224V48M240 48h8v8H240V48M256 48h8v8H256V48M264 48h8v8H264V48M272 48h8v8H272V48M288 48h8v8H288V48M32 56h8v8H32V56M48 56h8v8H48V56M56 56h8v8H56V56M64 56h8v8H64V56M80 56h8v8H80V56M96 56h8v8H96V56M120 56h8v8H120V56M144 56h8v8H144V56M160 56h8v8H160V56M168 56h8v8H168V56M184 56h8v8H184V56M192 56h8v8H192V56M208 56h8v8H208V56M240 56h8v8H240V56M256 56h8v8H256V56M264 56h8v8H264V56M272 56h8v8H272V56M288 56h8v8H288V56M32 64h8v8H32V64M48 64h8v8H48V64M56 64h8v8H56V64M64 64h8v8H64V64M80 64h8v8H80V64M120 64h8v8H120V64M136 64h8v8H136V64M144 64h8v8H144V64M168 64h8v8H168V64M184 64h8v8H184V64M208 64h8v8H208V64M224 64h8v8H224V64M240 64h8v8H240V64M256 64h8v8H256V64M264 64h8v8H264V64M272 64h8v8H272V64M288 64h8v8H288V64M32 72h8v8H32V72M80 72h8v8H80V72M112 72h8v8H112V72M144 72h8v8H144V72M168 72h8v8H168V72M184 72h8v8H184V72M192 72h8v8H192V72M200 72h8v8H200V72M208 72h8v8H208V72M224 72h8v8H224V72M240 72h8v8H240V72M288 72h8v8H288V72M32 80h8v8H32V80M40 80h8v8H40V80M48 80h8v8H48V80M56 80h8v8H56V80M64 80h8v8H64V80M72 80h8v8H72V80M80 80h8v8H80V80M96 80h8v8H96V80M112 80h8v8H112V80M128 80h8v8H128V80M144 80h8v8H144V80M160 80h8v8H160V80M176 80h8v8H176V80M192 80h8v8H192V80M208 80h8v8H208V80M224 80h8v8H224V80M240 80h8v8H240V80M248 80h8v8H248V80M256 80h8v8H256V80M264 80h8v8H264V80M272 80h8v8H272V80M280 80h8v8H280V80M288 80h8v8H288V80M96 88h8v8H96V88M104 88h8v8H104V88M120 88h8v8H120V88M168 88h8v8H168V88M192 88h8v8H192V88M32 96h8v8H32V96M48 96h8v8H48V96M56 96h8v8H56V96M72 96h8v8H72V96M80 96h8v8H80V96M88 96h8v8H88V96M104 96h8v8H104V96M112 96h8v8H112V96M144 96h8v8H144V96M160 96h8v8H160V96M168 96h8v8H168V96M176 96h8v8H176V96M200 96h8v8H200V96M208 96h8v8H208V96M216 96h8v8H216V96M224 96h8v8H224V96M240 96h8v8H240V96M264 96h8v8H264V96M280 96h8v8H280V96M288 96h8v8H288V96M40 104h8v8H40V104M88 104h8v8H88V104M96 104h8v8H96V104M112 104h8v8H112V104M128 104h8v8H128V104M144 104h8v8H144V104M160 104h8v8H160V104M168 104h8v8H168V104M184 104h8v8H184V104M192 104h8v8H192V104M200 104h8v8H200V104M216 104h8v8H216V104M240 104h8v8H240V104M248 104h8v8H248V104M264 104h8v8H264V104M272 104h8v8H272V104M288 104h8v8H288V104M32 112h8v8H32V112M40 112h8v8H40V112M48 112h8v8H48V112M72 112h8v8H72V112M80 112h8v8H80V112M88 112h8v8H88V112M104 112h8v8H104V112M112 112h8v8H112V112M120 112h8v8H120V112M144 112h8v8H144V112M160 112h8v8H160V112M176 112h8v8H176V112M192 112h8v8H192V112M200 112h8v8H200V112M216 112h8v8H216V112M232 112h8v8H232V112M248 112h8v8H248V112M256 112h8v8H256V112M264 112h8v8H264V112M280 112h8v8H280V112M288 112h8v8H288V112M32 120h8v8H32V120M56 120h8v8H56V120M64 120h8v8H64V120M72 120h8v8H72V120M88 120h8v8H88V120M104 120h8v8H104V120M112 120h8v8H112V120M120 120h8v8H120V120M136 120h8v8H136V120M144 120h8v8H144V120M176 120h8v8H176V120M192 120h8v8H192V120M248 120h8v8H248V120M264 120h8v8H264V120M288 120h8v8H288V120M32 128h8v8H32V128M40 128h8v8H40V128M72 128h8v8H72V128M80 128h8v8H80V128M128 128h8v8H128V128M152 128h8v8H152V128M168 128h8v8H168V128M216 128h8v8H216V128M224 128h8v8H224V128M232 128h8v8H232V128M248 128h8v8H248V128M256 128h8v8H256V128M264 128h8v8H264V128M32 136h8v8H32V136M48 136h8v8H48V136M56 136h8v8H56V136M72 136h8v8H72V136M96 136h8v8H96V136M112 136h8v8H112V136M120 136h8v8H120V136M128 136h8v8H128V136M136 136h8v8H136V136M160 136h8v8H160V136M168 136h8v8H168V136M176 136h8v8H176V136M184 136h8v8H184V136M200 136h8v8H200V136M208 136h8v8H208V136M224 136h8v8H224V136M232 136h8v8H232V136M264 136h8v8H264V136M272 136h8v8H272V136M280 136h8v8H280V136M48 144h8v8H48V144M56 144h8v8H56V144M80 144h8v8H80V144M120 144h8v8H120V144M152 144h8v8H152V144M160 144h8v8H160V144M168 144h8v8H168V144M184 144h8v8H184V144M200 144h8v8H200V144M240 144h8v8H240V144M248 144h8v8H248V144M32 152h8v8H32V152M56 152h8v8H56V152M64 152h8v8H64V152M88 152h8v8H88V152M112 152h8v8H112V152M160 152h8v8H160V152M184 152h8v8H184V152M192 152h8v8H192V152M200 152h8v8H200V152M216 152h8v8H216V152M224 152h8v8H224V152M232 152h8v8H232V152M240 152h8v8H240V152M248 152h8v8H248V152M256 152h8v8H256V152M264 152h8v8H264V152M272 152h8v8H272V152M32 160h8v8H32V160M48 160h8v8H48V160M56 160h8v8H56V160M64 160h8v8H64V160M72 160h8v8H72V160M80 160h8v8H80V160M104 160h8v8H104V160M136 160h8v8H136V160M152 160h8v8H152V160M176 160h8v8H176V160M184 160h8v8H184V160M192 160h8v8H192V160M200 160h8v8H200V160M208 160h8v8H208V160M216 160h8v8H216V160M232 160h8v8H232V160M240 160h8v8H240V160M256 160h8v8H256V160M272 160h8v8H272V160M32 168h8v8H32V168M88 168h8v8H88V168M128 168h8v8H128V168M136 168h8v8H136V168M144 168h8v8H144V168M152 168h8v8H152V168M176 168h8v8H176V168M192 168h8v8H192V168M208 168h8v8H208V168M216 168h8v8H216V168M224 168h8v8H224V168M232 168h8v8H232V168M240 168h8v8H240V168M256 168h8v8H256V168M264 168h8v8H264V168M280 168h8v8H280V168M288 168h8v8H288V168M32 176h8v8H32V176M40 176h8v8H40V176M48 176h8v8H48V176M56 176h8v8H56V176M64 176h8v8H64V176M72 176h8v8H72V176M80 176h8v8H80V176M96 176h8v8H96V176M104 176h8v8H104V176M120 176h8v8H120V176M144 176h8v8H144V176M152 176h8v8H152V176M168 176h8v8H168V176M176 176h8v8H176V176M192 176h8v8H192V176M224 176h8v8H224V176M248 176h8v8H248V176M256 176h8v8H256V176M272 176h8v8H272V176M280 176h8v8H280V176M56 184h8v8H56V184M72 184h8v8H72V184M88 184h8v8H88V184M112 184h8v8H112V184M120 184h8v8H120V184M128 184h8v8H128V184M136 184h8v8H136V184M144 184h8v8H144V184M152 184h8v8H152V184M160 184h8v8H160V184M168 184h8v8H168V184M184 184h8v8H184V184M208 184h8v8H208V184M216 184h8v8H216V184M224 184h8v8H224V184M232 184h8v8H232V184M240 184h8v8H240V184M256 184h8v8H256V184M280 184h8v8H280V184M288 184h8v8H288V184M40 192h8v8H40V192M48 192h8v8H48V192M56 192h8v8H56V192M64 192h8v8H64V192M80 192h8v8H80V192M88 192h8v8H88V192M96 192h8v8H96V192M104 192h8v8H104V192M128 192h8v8H128V192M136 192h8v8H136V192M144 192h8v8H144V192M152 192h8v8H152V192M160 192h8v8H160V192M168 192h8v8H168V192M176 192h8v8H176V192M200 192h8v8H200V192M208 192h8v8H208V192M224 192h8v8H224V192M264 192h8v8H264V192M272 192h8v8H272V192M32 200h8v8H32V200M40 200h8v8H40V200M64 200h8v8H64V200M72 200h8v8H72V200M88 200h8v8H88V200M120 200h8v8H120V200M152 200h8v8H152V200M168 200h8v8H168V200M176 200h8v8H176V200M184 200h8v8H184V200M192 200h8v8H192V200M200 200h8v8H200V200M216 200h8v8H216V200M232 200h8v8H232V200M240 200h8v8H240V200M264 200h8v8H264V200M272 200h8v8H272V200M288 200h8v8H288V200M48 208h8v8H48V208M72 208h8v8H72V208M80 208h8v8H80V208M88 208h8v8H88V208M96 208h8v8H96V208M104 208h8v8H104V208M128 208h8v8H128V208M144 208h8v8H144V208M160 208h8v8H160V208M200 208h8v8H200V208M216 208h8v8H216V208M224 208h8v8H224V208M232 208h8v8H232V208M240 208h8v8H240V208M264 208h8v8H264V208M280 208h8v8H280V208M288 208h8v8H288V208M40 216h8v8H40V216M72 216h8v8H72V216M88 216h8v8H88V216M96 216h8v8H96V216M112 216h8v8H112V216M136 216h8v8H136V216M144 216h8v8H144V216M152 216h8v8H152V216M192 216h8v8H192V216M240 216h8v8H240V216M248 216h8v8H248V216M264 216h8v8H264V216M280 216h8v8H280V216M288 216h8v8H288V216M32 224h8v8H32V224M64 224h8v8H64V224M72 224h8v8H72V224M80 224h8v8H80V224M96 224h8v8H96V224M120 224h8v8H120V224M128 224h8v8H128V224M152 224h8v8H152V224M168 224h8v8H168V224M184 224h8v8H184V224M208 224h8v8H208V224M224 224h8v8H224V224M232 224h8v8H232V224M240 224h8v8H240V224M248 224h8v8H248V224M256 224h8v8H256V224M288 224h8v8H288V224M96 232h8v8H96V232M104 232h8v8H104V232M120 232h8v8H120V232M128 232h8v8H128V232M136 232h8v8H136V232M152 232h8v8H152V232M160 232h8v8H160V232M176 232h8v8H176V232M184 232h8v8H184V232M192 232h8v8H192V232M200 232h8v8H200V232M224 232h8v8H224V232M256 232h8v8H256V232M264 232h8v8H264V232M32 240h8v8H32V240M40 240h8v8H40V240M48 240h8v8H48V240M56 240h8v8H56V240M64 240h8v8H64V240M72 240h8v8H72V240M80 240h8v8H80V240M96 240h8v8H96V240M104 240h8v8H104V240M120 240h8v8H120V240M136 240h8v8H136V240M144 240h8v8H144V240M184 240h8v8H184V240M192 240h8v8H192V240M216 240h8v8H216V240M224 240h8v8H224V240M240 240h8v8H240V240M256 240h8v8H256V240M32 248h8v8H32V248M80 248h8v8H80V248M96 248h8v8H96V248M112 248h8v8H112V248M128 248h8v8H128V248M136 248h8v8H136V248M144 248h8v8H144V248M152 248h8v8H152V248M192 248h8v8H192V248M200 248h8v8H200V248M208 248h8v8H208V248M216 248h8v8H216V248M224 248h8v8H224V248M256 248h8v8H256V248M264 248h8v8H264V248M272 248h8v8H272V248M32 256h8v8H32V256M48 256h8v8H48V256M56 256h8v8H56V256M64 256h8v8H64V256M80 256h8v8H80V256M104 256h8v8H104V256M128 256h8v8H128V256M136 256h8v8H136V256M176 256h8v8H176V256M184 256h8v8H184V256M192 256h8v8H192V256M200 256h8v8H200V256M208 256h8v8H208V256M216 256h8v8H216V256M224 256h8v8H224V256M232 256h8v8H232V256M240 256h8v8H240V256M248 256h8v8H248V256M256 256h8v8H256V256M272 256h8v8H272V256M280 256h8v8H280V256M288 256h8v8H288V256M32 264h8v8H32V264M48 264h8v8H48V264M56 264h8v8H56V264M64 264h8v8H64V264M80 264h8v8H80V264M96 264h8v8H96V264M104 264h8v8H104V264M112 264h8v8H112V264M128 264h8v8H128V264M136 264h8v8H136V264M152 264h8v8H152V264M192 264h8v8H192V264M200 264h8v8H200V264M208 264h8v8H208V264M216 264h8v8H216V264M248 264h8v8H248V264M288 264h8v8H288V264M32 272h8v8H32V272M48 272h8v8H48V272M56 272h8v8H56V272M64 272h8v8H64V272M80 272h8v8H80V272M96 272h8v8H96V272M128 272h8v8H128V272M152 272h8v8H152V272M176 272h8v8H176V272M192 272h8v8H192V272M208 272h8v8H208V272M240 272h8v8H240V272M248 272h8v8H248V272M264 272h8v8H264V272M272 272h8v8H272V272M32 280h8v8H32V280M80 280h8v8H80V280M104 280h8v8H104V280M120 280h8v8H120V280M152 280h8v8H152V280M160 280h8v8H160V280M168 280h8v8H168V280M208 280h8v8H208V280M216 280h8v8H216V280M224 280h8v8H224V280M232 280h8v8H232V280M240 280h8v8H240V280M248 280h8v8H248V280M256 280h8v8H256V280M288 280h8v8H288V280M32 288h8v8H32V288M40 288h8v8H40V288M48 288h8v8H48V288M56 288h8v8H56V288M64 288h8v8H64V288M72 288h8v8H72V288M80 288h8v8H80V288M96 288h8v8H96V288M104 288h8v8H104V288M120 288h8v8H120V288M128 288h8v8H128V288M136 288h8v8H136V288M144 288h8v8H144V288M152 288h8v8H152V288M160 288h8v8H160V288M168 288h8v8H168V288M176 288h8v8H176V288M200 288h8v8H200V288M216 288h8v8H216V288M256 288h8v8H256V288M272 288h8v8H272V288"/></svg>